<svg width="64" height="46" viewBox="0 0 64 46" fill="none" xmlns="http://www.w3.org/2000/svg">
<path d="M53.3333 0C59.2222 0 64 4.75481 64 10.6154V35.3846C64 41.2452 59.2222 46 53.3333 46H10.6667C4.77778 46 0 41.2452 0 35.3846V10.6154C0 4.75481 4.77778 0 10.6667 0H53.3333ZM33.6 9.14471C32.5111 7.33125 31.3222 7.33125 30.3111 9.14471L22.6556 21.7505C21.4667 23.4755 20.8333 25.3774 20.8333 27.5558C20.8333 33.1841 25.7556 37.9832 31.9556 37.9832C38.0667 37.9832 43.1667 33.1731 43.1667 27.5558C43.1667 25.3774 42.4333 23.376 41.2556 21.7505L33.6 9.14471Z" fill="white"/>
</svg>
